REM DIRINDEX 1\4,1\2\5,1\2\6,1\2\7,1\3\8,1\3\9,1\3\10,1\3\11
REM DIRNAME cjc108,folder01,folder02,folder03,folder04,folder05,folder06,folder07,folder08,folder09,folder10
TITLE ""
FILE "t_k_179-190.mp3" MP3
  TRACK 01 AUDIO
    TITLE "5:cjc108_0537"
    INDEX 01 00:00:00
  TRACK 02 AUDIO
    TITLE "0:"
    INDEX 01 00:01:09
  TRACK 03 AUDIO
    TITLE "6:cjc108_0538"
    INDEX 01 00:01:15
  TRACK 04 AUDIO
    TITLE "0:"
    INDEX 01 00:02:28
  TRACK 05 AUDIO
    TITLE "7:cjc108_0539"
    INDEX 01 00:02:42
  TRACK 06 AUDIO
    TITLE "0:"
    INDEX 01 00:06:67
  TRACK 07 AUDIO
    TITLE "5:cjc108_0540"
    INDEX 01 00:07:45
  TRACK 08 AUDIO
    TITLE "0:"
    INDEX 01 00:08:64
  TRACK 09 AUDIO
    TITLE "6:cjc108_0541"
    INDEX 01 00:09:06
  TRACK 10 AUDIO
    TITLE "0:"
    INDEX 01 00:10:18
  TRACK 11 AUDIO
    TITLE "7:cjc108_0542"
    INDEX 01 00:10:33
  TRACK 12 AUDIO
    TITLE "0:"
    INDEX 01 00:15:72
  TRACK 13 AUDIO
    TITLE "5:cjc108_0543"
    INDEX 01 00:16:55
  TRACK 14 AUDIO
    TITLE "0:"
    INDEX 01 00:18:11
  TRACK 15 AUDIO
    TITLE "6:cjc108_0544"
    INDEX 01 00:18:33
  TRACK 16 AUDIO
    TITLE "0:"
    INDEX 01 00:21:35
  TRACK 17 AUDIO
    TITLE "7:cjc108_0545"
    INDEX 01 00:21:53
  TRACK 18 AUDIO
    TITLE "0:"
    INDEX 01 00:27:36
  TRACK 19 AUDIO
    TITLE "5:cjc108_0546"
    INDEX 01 00:28:23
  TRACK 20 AUDIO
    TITLE "0:"
    INDEX 01 00:29:64
  TRACK 21 AUDIO
    TITLE "6:cjc108_0547"
    INDEX 01 00:29:74
  TRACK 22 AUDIO
    TITLE "0:"
    INDEX 01 00:31:22
  TRACK 23 AUDIO
    TITLE "7:cjc108_0548"
    INDEX 01 00:31:39
  TRACK 24 AUDIO
    TITLE "0:"
    INDEX 01 00:37:30
  TRACK 25 AUDIO
    TITLE "5:cjc108_0549"
    INDEX 01 00:38:04
  TRACK 26 AUDIO
    TITLE "0:"
    INDEX 01 00:39:21
  TRACK 27 AUDIO
    TITLE "6:cjc108_0550"
    INDEX 01 00:39:41
  TRACK 28 AUDIO
    TITLE "0:"
    INDEX 01 00:40:48
  TRACK 29 AUDIO
    TITLE "7:cjc108_0551"
    INDEX 01 00:40:72
  TRACK 30 AUDIO
    TITLE "0:"
    INDEX 01 00:45:26
  TRACK 31 AUDIO
    TITLE "5:cjc108_0552"
    INDEX 01 00:46:21
  TRACK 32 AUDIO
    TITLE "0:"
    INDEX 01 00:47:30
  TRACK 33 AUDIO
    TITLE "6:cjc108_0553"
    INDEX 01 00:47:50
  TRACK 34 AUDIO
    TITLE "0:"
    INDEX 01 00:48:71
  TRACK 35 AUDIO
    TITLE "7:cjc108_0554"
    INDEX 01 00:49:14
  TRACK 36 AUDIO
    TITLE "0:"
    INDEX 01 00:53:27
  TRACK 37 AUDIO
    TITLE "5:cjc108_0555"
    INDEX 01 00:54:11
  TRACK 38 AUDIO
    TITLE "0:"
    INDEX 01 00:55:20
  TRACK 39 AUDIO
    TITLE "6:cjc108_0556"
    INDEX 01 00:55:40
  TRACK 40 AUDIO
    TITLE "0:"
    INDEX 01 00:57:58
  TRACK 41 AUDIO
    TITLE "7:cjc108_0557"
    INDEX 01 00:58:01
  TRACK 42 AUDIO
    TITLE "0:"
    INDEX 01 01:02:26
  TRACK 43 AUDIO
    TITLE "5:cjc108_0558"
    INDEX 01 01:03:14
  TRACK 44 AUDIO
    TITLE "0:"
    INDEX 01 01:04:29
  TRACK 45 AUDIO
    TITLE "6:cjc108_0559"
    INDEX 01 01:04:50
  TRACK 46 AUDIO
    TITLE "0:"
    INDEX 01 01:06:73
  TRACK 47 AUDIO
    TITLE "7:cjc108_0560"
    INDEX 01 01:07:21
  TRACK 48 AUDIO
    TITLE "0:"
    INDEX 01 01:14:70
  TRACK 49 AUDIO
    TITLE "5:cjc108_0561"
    INDEX 01 01:15:58
  TRACK 50 AUDIO
    TITLE "0:"
    INDEX 01 01:17:00
  TRACK 51 AUDIO
    TITLE "6:cjc108_0562"
    INDEX 01 01:17:18
  TRACK 52 AUDIO
    TITLE "0:"
    INDEX 01 01:19:52
  TRACK 53 AUDIO
    TITLE "7:cjc108_0563"
    INDEX 01 01:19:74
  TRACK 54 AUDIO
    TITLE "0:"
    INDEX 01 01:24:37
  TRACK 55 AUDIO
    TITLE "5:cjc108_0564"
    INDEX 01 01:25:17
  TRACK 56 AUDIO
    TITLE "0:"
    INDEX 01 01:26:19
  TRACK 57 AUDIO
    TITLE "6:cjc108_0565"
    INDEX 01 01:26:40
  TRACK 58 AUDIO
    TITLE "0:"
    INDEX 01 01:28:65
  TRACK 59 AUDIO
    TITLE "7:cjc108_0566"
    INDEX 01 01:29:17
  TRACK 60 AUDIO
    TITLE "0:"
    INDEX 01 01:33:64
  TRACK 61 AUDIO
    TITLE "5:cjc108_0567"
    INDEX 01 01:34:59
  TRACK 62 AUDIO
    TITLE "0:"
    INDEX 01 01:35:63
  TRACK 63 AUDIO
    TITLE "6:cjc108_0568"
    INDEX 01 01:36:19
  TRACK 64 AUDIO
    TITLE "0:"
    INDEX 01 01:38:59
  TRACK 65 AUDIO
    TITLE "7:cjc108_0569"
    INDEX 01 01:39:04
  TRACK 66 AUDIO
    TITLE "0:"
    INDEX 01 01:44:60
  TRACK 67 AUDIO
    TITLE "5:cjc108_0570"
    INDEX 01 01:45:44
  TRACK 68 AUDIO
    TITLE "0:"
    INDEX 01 01:46:63
  TRACK 69 AUDIO
    TITLE "6:cjc108_0571"
    INDEX 01 01:47:11
  TRACK 70 AUDIO
    TITLE "0:"
    INDEX 01 01:49:57
  TRACK 71 AUDIO
    TITLE "7:cjc108_0572"
    INDEX 01 01:49:73
  TRACK 72 AUDIO
    TITLE "0:"
    INDEX 01 01:55:26
